<?xml version="1.0" encoding="UTF-8" standalone="no"?>
<svg
   xmlns:dc="http://purl.org/dc/elements/1.1/"
   xmlns:cc="http://creativecommons.org/ns#"
   xmlns:rdf="http://www.w3.org/1999/02/22-rdf-syntax-ns#"
   xmlns:svg="http://www.w3.org/2000/svg"
   xmlns="http://www.w3.org/2000/svg"
   viewBox="0 0 665.12 665.12"
   height="665.12"
   width="665.12"
   xml:space="preserve"
   id="svg2"
   version="1.1"><metadata
     id="metadata8"><rdf:RDF><cc:Work
         rdf:about=""><dc:format>image/svg+xml</dc:format><dc:type
           rdf:resource="http://purl.org/dc/dcmitype/StillImage" /></cc:Work></rdf:RDF></metadata><defs
     id="defs6"><clipPath
       id="clipPath18"
       clipPathUnits="userSpaceOnUse"><path
         style="clip-rule:evenodd"
         id="path16"
         d="M 0,1.2207e-4 H 498.84 V 498.84012 H 0 Z" /></clipPath><clipPath
       id="clipPath28"
       clipPathUnits="userSpaceOnUse"><path
         style="clip-rule:evenodd"
         id="path26"
         d="M 0,1.5259e-4 H 498.84 V 498.84015 H 0 Z" /></clipPath></defs><g
     transform="matrix(1.3333333,0,0,-1.3333333,0,665.12)"
     id="g10"><g
       id="g12"><g
         clip-path="url(#clipPath18)"
         id="g14"><path
           id="path20"
           style="fill:#ffffff;fill-opacity:1;fill-rule:evenodd;stroke:none"
           d="M 0,3.0518e-5 H 498.84 V 498.84003 H 0 Z" /></g></g><g
       id="g22"><g
         clip-path="url(#clipPath28)"
         id="g24"><path
           id="path30"
           style="fill:none;stroke:#282828;stroke-width:24.95999908;stroke-linecap:butt;stroke-linejoin:miter;stroke-miterlimit:10;stroke-dasharray:none;stroke-opacity:1"
           d="M 12.36,8.88 H 487.8 v 477.6 H 12.36 Z" /></g></g><path
       id="path32"
       style="fill:#282828;fill-opacity:1;fill-rule:nonzero;stroke:none"
       d="m 48.21,382.19 c 8.477,1.23 17.124,2.15 25.943,2.77 8.818,0.61 18.901,0.92 30.247,0.92 18.87,0 35.72,-2.15 50.55,-6.46 14.84,-4.31 27.31,-10.32 37.43,-18.05 10.12,-7.72 17.84,-16.98 23.17,-27.78 5.34,-10.81 8,-22.7 8,-35.69 0,-13.26 -3.01,-25.43 -9.02,-36.5 -6.02,-11.08 -14.84,-20.51 -26.46,-28.3 l 42.66,-93.11 c 4.37,-9.71 8,-17.05 10.87,-22.04 2.87,-4.99 5.54,-8.45 8,-10.36 l -1.03,-1.03 c -3.42,0.55 -6.77,0.93 -10.05,1.13 -3.28,0.21 -6.56,0.31 -9.84,0.31 -5.2,0 -11.11,-0.1 -17.74,-0.31 -6.63,-0.2 -14.25,-0.65 -22.87,-1.33 l -46.75,109.31 c -4.11,-0.69 -8.31,-1.2 -12.62,-1.54 -4.3,-0.34 -8.78,-0.52 -13.43,-0.52 -2.32,0 -4.75,0.07 -7.28,0.21 -2.53,0.14 -5.02,0.34 -7.48,0.62 V 108 h -52.3 z m 52.3,-120.38 c 3.69,-0.69 7.24,-1.06 10.66,-1.13 3.42,-0.07 6.63,-0.1 9.64,-0.1 7.11,0 13.74,0.95 19.89,2.87 6.15,1.91 11.48,4.51 16,7.79 4.51,3.28 8.06,7.11 10.66,11.49 2.6,4.37 3.9,9.09 3.9,14.15 0,5.33 -1.37,10.42 -4.1,15.27 -2.74,4.86 -6.74,9.1 -12,12.72 -5.27,3.62 -11.79,6.49 -19.59,8.61 -7.79,2.12 -16.74,3.18 -26.86,3.18 -1.51,0 -2.94,0 -4.31,0 -1.37,0 -2.66,-0.07 -3.89,-0.2 z m 160.1,119.76 c 2.73,-0.13 5.5,-0.27 8.31,-0.41 2.8,-0.13 5.43,-0.24 7.89,-0.3 2.46,-0.07 4.62,-0.11 6.46,-0.11 1.85,0 3.32,0 4.41,0 5.33,0 10.43,0.17 15.28,0.52 4.85,0.34 8.17,0.71 9.95,1.12 V 266.94 l 76.9,114.63 c 2.19,-0.13 4.82,-0.27 7.89,-0.41 3.08,-0.13 6.12,-0.24 9.13,-0.3 3.01,-0.07 5.81,-0.11 8.41,-0.11 2.6,0 4.58,0 5.95,0 2.59,0 5.33,0.04 8.2,0.11 2.87,0.06 5.71,0.17 8.51,0.3 2.8,0.14 5.37,0.31 7.69,0.52 2.32,0.2 4.24,0.44 5.74,0.71 L 383.04,285.6 452.15,124.41 c 1.92,-4.38 3.59,-7.8 5.03,-10.26 1.43,-2.46 2.83,-4.51 4.2,-6.15 h -12.51 c -15.58,0 -27.58,-0.14 -35.99,-0.41 -8.41,-0.27 -14.39,-0.68 -17.94,-1.23 -0.69,4.24 -1.54,8.41 -2.57,12.51 -1.02,4.1 -2.22,7.93 -3.59,11.48 l -44.09,100.9 -31.78,-45.32 v -79.16 c -3.15,0.27 -7.7,0.55 -13.64,0.82 -5.95,0.27 -13.44,0.41 -22.46,0.41 h -16.2 z" /></g></svg>