<?xml version="1.0" encoding="UTF-8" standalone="no"?>
<svg
   xmlns:dc="http://purl.org/dc/elements/1.1/"
   xmlns:cc="http://creativecommons.org/ns#"
   xmlns:rdf="http://www.w3.org/1999/02/22-rdf-syntax-ns#"
   xmlns:svg="http://www.w3.org/2000/svg"
   xmlns="http://www.w3.org/2000/svg"
   viewBox="0 0 2898.8799 971.35999"
   height="971.35999"
   width="2898.8799"
   xml:space="preserve"
   id="svg2"
   version="1.1"><metadata
     id="metadata8"><rdf:RDF><cc:Work
         rdf:about=""><dc:format>image/svg+xml</dc:format><dc:type
           rdf:resource="http://purl.org/dc/dcmitype/StillImage" /></cc:Work></rdf:RDF></metadata><defs
     id="defs6"><clipPath
       id="clipPath18"
       clipPathUnits="userSpaceOnUse"><path
         style="clip-rule:evenodd"
         id="path16"
         d="M 0,1.8311e-4 H 2174.16 V 728.52018 H 0 Z" /></clipPath><clipPath
       id="clipPath28"
       clipPathUnits="userSpaceOnUse"><path
         style="clip-rule:evenodd"
         id="path26"
         d="M 0,2.4414e-4 H 2174.16 V 728.52024 H 0 Z" /></clipPath><clipPath
       id="clipPath40"
       clipPathUnits="userSpaceOnUse"><path
         style="clip-rule:evenodd"
         id="path38"
         d="M 3.2398e-5,0 H 2174.16 V 728.52 H 3.2398e-5 Z" /></clipPath></defs><g
     transform="matrix(1.3333333,0,0,-1.3333333,0,971.36)"
     id="g10"><g
       id="g12"><g
         clip-path="url(#clipPath18)"
         id="g14"><path
           id="path20"
           style="fill:#ffffff;fill-opacity:1;fill-rule:evenodd;stroke:none"
           d="M 0,6.1035e-5 H 2174.16 V 728.52006 H 0 Z" /></g></g><g
       id="g22"><g
         clip-path="url(#clipPath28)"
         id="g24"><path
           id="path30"
           style="fill:none;stroke:#282828;stroke-width:24.95999908;stroke-linecap:butt;stroke-linejoin:miter;stroke-miterlimit:10;stroke-dasharray:none;stroke-opacity:1"
           d="M 11.4,12.6 H 2162.64 V 716.88 H 11.4 Z" /></g></g><path
       id="path32"
       style="fill:#282828;fill-opacity:1;fill-rule:nonzero;stroke:none"
       d="m 97.267,550.33 c 7.673,1.12 15.493,1.95 23.473,2.51 7.98,0.56 17.1,0.83 27.37,0.83 17.07,0 32.32,-1.94 45.74,-5.84 13.43,-3.9 24.72,-9.34 33.87,-16.33 9.15,-6.99 16.14,-15.37 20.97,-25.14 4.82,-9.78 7.24,-20.54 7.24,-32.29 0,-12 -2.73,-23.01 -8.17,-33.03 -5.44,-10.02 -13.42,-18.56 -23.94,-25.61 l 38.6,-84.25 c 3.96,-8.78 7.24,-15.43 9.84,-19.95 2.59,-4.51 5.01,-7.64 7.23,-9.37 l -0.92,-0.93 c -3.1,0.5 -6.13,0.84 -9.1,1.02 -2.97,0.19 -5.94,0.28 -8.9,0.28 -4.71,0 -10.06,-0.09 -16.06,-0.28 -6,-0.18 -12.89,-0.58 -20.69,-1.2 l -42.31,98.9 c -3.71,-0.61 -7.51,-1.08 -11.41,-1.39 -3.9,-0.31 -7.95,-0.46 -12.15,-0.46 -2.11,0 -4.3,0.06 -6.59,0.18 -2.29,0.13 -4.55,0.31 -6.77,0.56 V 302.23 H 97.267 Z M 144.59,441.41 c 3.34,-0.62 6.55,-0.96 9.65,-1.02 3.09,-0.07 6,-0.1 8.72,-0.1 6.43,0 12.43,0.87 18,2.6 5.56,1.73 10.39,4.08 14.47,7.05 4.08,2.97 7.3,6.44 9.65,10.4 2.35,3.95 3.53,8.22 3.53,12.8 0,4.82 -1.24,9.43 -3.71,13.82 -2.48,4.4 -6.1,8.23 -10.86,11.51 -4.76,3.28 -10.67,5.88 -17.72,7.79 -7.05,1.92 -15.16,2.88 -24.31,2.88 -1.36,0 -2.66,0 -3.9,0 -1.23,0 -2.41,-0.06 -3.52,-0.19 z m 172.04,108.92 c 3.34,-0.24 7.02,-0.46 11.04,-0.64 4.02,-0.19 8.16,-0.31 12.43,-0.38 4.27,-0.06 8.54,-0.12 12.81,-0.18 4.26,-0.06 8.38,-0.09 12.34,-0.09 11.87,0 25.42,0.09 40.63,0.27 15.22,0.19 31.55,0.59 48.99,1.21 -0.37,-2.97 -0.68,-6.56 -0.92,-10.76 -0.25,-4.21 -0.47,-8.41 -0.65,-12.62 -0.19,-4.21 -0.31,-8.14 -0.37,-11.78 -0.07,-3.65 -0.1,-6.47 -0.1,-8.45 0,-1.73 0.13,-3.21 0.37,-4.45 l -0.37,-0.56 c -1.73,0.5 -3.4,0.93 -5.01,1.3 -1.61,0.37 -3.43,0.65 -5.47,0.84 -2.04,0.18 -4.42,0.34 -7.15,0.46 -2.72,0.12 -6,0.19 -9.83,0.19 h -61.42 v -47.32 h 54.18 c 7.05,0 12.43,0.06 16.15,0.18 3.71,0.13 6.49,0.43 8.35,0.93 l 0.55,-45.84 c -3.58,0.38 -7.33,0.62 -11.22,0.75 -3.9,0.12 -7.83,0.18 -11.79,0.18 h -56.22 v -66.8 h 78.68 c 4.82,0 8.38,0.21 10.67,0.65 2.29,0.43 4.05,0.96 5.29,1.58 l 0.74,-0.19 v -46.58 h -142.7 z m 190.93,-248.1 c 0.37,2.11 0.65,4.18 0.83,6.22 0.19,2.04 0.28,4.55 0.28,7.51 v 233.08 h 40.82 c 6.44,-12.13 12.93,-24 19.49,-35.63 6.55,-11.63 13.36,-23.42 20.41,-35.35 7.05,-11.94 14.47,-24.31 22.27,-37.12 7.79,-12.8 16.14,-26.38 25.05,-40.73 v 136.21 c 0,6.8 -0.62,11.01 -1.86,12.62 h 50.11 c -0.25,-1.98 -0.47,-4.3 -0.65,-6.96 -0.19,-2.66 -0.28,-5.79 -0.28,-9.37 V 302.23 h -40.45 c -6.81,10.52 -12.96,20.01 -18.47,28.49 -5.5,8.47 -10.64,16.36 -15.4,23.66 -4.76,7.3 -9.28,14.32 -13.55,21.06 -4.26,6.74 -8.5,13.58 -12.71,20.5 -4.2,6.93 -8.53,14.26 -12.99,21.99 -4.45,7.74 -9.28,16.3 -14.47,25.7 v -141.4 z m 317.29,326.23 c 6.93,0 12.99,0.06 18.19,0.18 5.19,0.13 10.02,0.34 14.47,0.65 4.45,0.31 8.78,0.65 12.99,1.02 4.21,0.38 8.78,0.81 13.73,1.3 l -0.18,-1.3 -48.62,-59.93 h -41.94 z m -76.82,-78.13 c 3.34,-0.24 7.02,-0.46 11.04,-0.64 4.02,-0.19 8.16,-0.31 12.43,-0.38 4.27,-0.06 8.54,-0.12 12.81,-0.18 4.26,-0.06 8.38,-0.09 12.34,-0.09 11.87,0 25.42,0.09 40.63,0.27 15.22,0.19 31.55,0.59 48.99,1.21 -0.37,-2.97 -0.68,-6.56 -0.92,-10.76 -0.25,-4.21 -0.47,-8.41 -0.65,-12.62 -0.19,-4.21 -0.31,-8.14 -0.37,-11.78 -0.07,-3.65 -0.1,-6.47 -0.1,-8.45 0,-1.73 0.13,-3.21 0.37,-4.45 l -0.37,-0.56 c -1.73,0.5 -3.4,0.93 -5.01,1.3 -1.61,0.37 -3.43,0.65 -5.47,0.84 -2.04,0.18 -4.42,0.34 -7.15,0.46 -2.72,0.12 -6,0.19 -9.83,0.19 h -61.42 v -47.32 h 54.18 c 7.05,0 12.43,0.06 16.15,0.18 3.71,0.13 6.49,0.43 8.35,0.93 l 0.55,-45.84 c -3.58,0.38 -7.33,0.62 -11.22,0.75 -3.9,0.12 -7.83,0.18 -11.79,0.18 h -56.22 v -66.8 h 78.68 c 4.82,0 8.38,0.21 10.67,0.65 2.29,0.43 4.05,0.96 5.29,1.58 l 0.74,-0.19 v -46.58 h -142.7 z m 293.04,-0.55 c 2.47,-0.13 4.98,-0.25 7.51,-0.37 2.54,-0.13 4.92,-0.22 7.15,-0.28 2.22,-0.06 4.17,-0.09 5.84,-0.09 1.67,0 3,0 3.99,0 4.83,0 9.43,0.15 13.83,0.46 4.39,0.31 7.39,0.65 9,1.02 V 446.05 l 69.58,103.73 c 1.98,-0.13 4.36,-0.25 7.15,-0.37 2.78,-0.13 5.53,-0.22 8.26,-0.28 2.72,-0.06 5.25,-0.09 7.6,-0.09 2.35,0 4.15,0 5.39,0 2.35,0 4.82,0.03 7.42,0.09 2.6,0.06 5.16,0.15 7.7,0.28 2.54,0.12 4.85,0.28 6.96,0.46 2.1,0.19 3.83,0.4 5.19,0.65 l -61.79,-87.59 62.54,-145.85 c 1.73,-3.96 3.24,-7.05 4.54,-9.28 1.3,-2.23 2.57,-4.08 3.81,-5.57 h -11.32 c -14.11,0 -24.96,-0.12 -32.57,-0.37 -7.61,-0.25 -13.02,-0.62 -16.24,-1.11 -0.62,3.83 -1.39,7.61 -2.32,11.32 -0.92,3.71 -2.01,7.17 -3.24,10.39 l -39.9,91.3 -28.76,-41.01 v -71.63 c -2.85,0.25 -6.96,0.49 -12.34,0.74 -5.39,0.25 -12.16,0.37 -20.32,0.37 h -14.66 z m 220.68,0.55 c 3.34,-0.24 7.02,-0.46 11.04,-0.64 4.02,-0.19 8.16,-0.31 12.43,-0.38 4.27,-0.06 8.54,-0.12 12.81,-0.18 4.26,-0.06 8.38,-0.09 12.34,-0.09 11.87,0 25.42,0.09 40.63,0.27 15.22,0.19 31.55,0.59 48.99,1.21 -0.37,-2.97 -0.68,-6.56 -0.92,-10.76 -0.25,-4.21 -0.47,-8.41 -0.65,-12.62 -0.19,-4.21 -0.31,-8.14 -0.37,-11.78 -0.07,-3.65 -0.1,-6.47 -0.1,-8.45 0,-1.73 0.13,-3.21 0.37,-4.45 l -0.37,-0.56 c -1.73,0.5 -3.4,0.93 -5.01,1.3 -1.61,0.37 -3.43,0.65 -5.47,0.84 -2.04,0.18 -4.42,0.34 -7.15,0.46 -2.72,0.12 -6,0.19 -9.83,0.19 h -61.42 v -47.32 h 54.18 c 7.05,0 12.43,0.06 16.15,0.18 3.71,0.13 6.49,0.43 8.35,0.93 l 0.55,-45.84 c -3.58,0.38 -7.33,0.62 -11.22,0.75 -3.9,0.12 -7.83,0.18 -11.79,0.18 h -56.22 v -66.8 h 78.68 c 4.82,0 8.38,0.21 10.67,0.65 2.29,0.43 4.05,0.96 5.29,1.58 l 0.74,-0.19 v -46.58 h -142.7 z m 194.64,-0.55 c 3.96,-0.25 7.39,-0.43 10.3,-0.56 2.9,-0.12 5.53,-0.18 7.88,-0.18 7.05,0 13.02,0.12 17.91,0.37 4.89,0.24 8.32,0.62 10.3,1.11 l 62.35,-105.96 59.94,105.96 c 0.99,-0.25 2.63,-0.46 4.91,-0.65 2.29,-0.18 4.86,-0.34 7.71,-0.46 2.84,-0.13 5.81,-0.22 8.9,-0.28 3.1,-0.06 5.94,-0.09 8.54,-0.09 4.33,0 7.95,0.06 10.85,0.18 2.91,0.13 6.34,0.31 10.3,0.56 V 302.23 h -14.84 c -3.71,0 -7.3,-0.03 -10.76,-0.09 -3.47,-0.06 -6.62,-0.15 -9.47,-0.28 -2.84,-0.12 -5.32,-0.25 -7.42,-0.37 -2.1,-0.12 -3.71,-0.25 -4.83,-0.37 v 169.42 l -62.53,-111.71 -62.72,102.8 V 301.12 c -1.12,0.12 -2.73,0.25 -4.83,0.37 -2.1,0.12 -4.58,0.25 -7.42,0.37 -2.85,0.13 -6,0.22 -9.46,0.28 -3.47,0.06 -7.06,0.09 -10.77,0.09 h -14.84 z m 286.68,0.55 c 15.21,2.23 30.37,3.34 45.46,3.34 16.7,0 31.86,-2.16 45.46,-6.49 13.61,-4.33 25.24,-10.55 34.89,-18.65 9.65,-8.1 17.07,-18 22.27,-29.69 5.19,-11.69 7.79,-24.9 7.79,-39.62 0,-9.65 -1.39,-18.68 -4.17,-27.09 -2.79,-8.41 -6.59,-16.05 -11.41,-22.92 -4.83,-6.86 -10.49,-12.99 -16.98,-18.37 -6.5,-5.38 -13.52,-9.93 -21.07,-13.64 -7.54,-3.71 -15.4,-6.52 -23.56,-8.44 -8.17,-1.92 -16.33,-2.88 -24.5,-2.88 -1.11,0 -2.22,0.03 -3.34,0.09 -1.11,0.07 -2.29,0.16 -3.52,0.28 v -64.02 h -47.32 z m 47.32,-139.73 c 0.74,-0.24 1.45,-0.37 2.13,-0.37 0.68,0 1.45,0 2.32,0 7.18,0 14.16,0.93 20.97,2.79 6.8,1.85 12.83,4.67 18.09,8.44 5.26,3.77 9.5,8.5 12.71,14.19 3.22,5.7 4.83,12.44 4.83,20.23 0,7.8 -1.33,14.94 -3.99,21.43 -2.66,6.5 -6.34,12.1 -11.04,16.8 -4.7,4.7 -10.33,8.35 -16.89,10.95 -6.56,2.59 -13.79,3.89 -21.71,3.89 -1.36,0 -2.66,0 -3.9,0 -1.23,0 -2.41,-0.06 -3.52,-0.18 z m 158.6,139.73 c 3.34,-0.24 7.02,-0.46 11.04,-0.64 4.02,-0.19 8.16,-0.31 12.43,-0.38 4.27,-0.06 8.54,-0.12 12.81,-0.18 4.26,-0.06 8.38,-0.09 12.34,-0.09 11.87,0 25.42,0.09 40.63,0.27 15.22,0.19 31.55,0.59 48.99,1.21 -0.37,-2.97 -0.68,-6.56 -0.92,-10.76 -0.25,-4.21 -0.47,-8.41 -0.65,-12.62 -0.19,-4.21 -0.31,-8.14 -0.37,-11.78 -0.07,-3.65 -0.1,-6.47 -0.1,-8.45 0,-1.73 0.13,-3.21 0.37,-4.45 l -0.37,-0.56 c -1.73,0.5 -3.4,0.93 -5.01,1.3 -1.61,0.37 -3.43,0.65 -5.47,0.84 -2.04,0.18 -4.42,0.34 -7.15,0.46 -2.72,0.12 -6,0.19 -9.83,0.19 h -61.42 v -47.32 h 54.18 c 7.05,0 12.43,0.06 16.15,0.18 3.71,0.13 6.49,0.43 8.35,0.93 l 0.55,-45.84 c -3.58,0.38 -7.33,0.62 -11.22,0.75 -3.9,0.12 -7.83,0.18 -11.79,0.18 h -56.22 v -66.8 h 78.68 c 4.82,0 8.38,0.21 10.67,0.65 2.29,0.43 4.05,0.96 5.29,1.58 l 0.74,-0.19 v -46.58 h -142.7 z" /><g
       id="g34"><g
         clip-path="url(#clipPath40)"
         id="g36"><text
           id="text44"
           style="font-variant:normal;font-weight:normal;font-size:150.05000305px;font-family:'Hammersmith One';-inkscape-font-specification:'Hammersmith One';writing-mode:lr-tb;fill:#282828;fill-opacity:1;fill-rule:nonzero;stroke:none"
           transform="matrix(1,0,0,-1,312.5,143.81)"><tspan
             id="tspan42"
             y="0"
             x="0 80.576851 167.1557 259.43646 341.8139 418.6395 487.21234 526.07532 607.4024 702.68414 817.32233 897.89917 1012.5374 1110.37 1196.9489 1288.6294 1369.9565 1465.2383">TRAVEL PHOTOGRAPHY</tspan></text>
</g></g></g></svg>