<?xml version="1.0" encoding="UTF-8" standalone="no"?> <!-- Created with Vectornator for iOS (http://vectornator.io/) --><!DOCTYPE svg PUBLIC "-//W3C//DTD SVG 1.1//EN" "http://www.w3.org/Graphics/SVG/1.1/DTD/svg11.dtd">
<svg style="fill-rule:evenodd;clip-rule:evenodd;stroke-linecap:round;stroke-linejoin:round;" xmlns:vectornator="http://vectornator.io" xmlns:xlink="http://www.w3.org/1999/xlink" xmlns="http://www.w3.org/2000/svg" xml:space="preserve" version="1.1" viewBox="0 0 200 67">
<metadata>
<vectornator:setting key="DisplayWhiteBackground" value="0"/>
<vectornator:setting key="RulersVisible" value="1"/>
<vectornator:setting key="SnapToEdges" value="1"/>
<vectornator:setting key="Units" value="Pixels"/>
<vectornator:setting key="New" value="1"/>
<vectornator:setting key="DynamicGuides" value="0"/>
<vectornator:setting key="SnapToPoints" value="1"/>
<vectornator:setting key="SnapToGrid" value="0"/>
<vectornator:setting key="SnapToGuides" value="1"/>
<vectornator:setting key="GridSpacing" value="36"/>
</metadata>
<defs/>
<g id="Layer 1" vectornator:layerName="Layer 1">
<path stroke="#282828" stroke-width="4" d="M0+0L200+0L200+67L0+67L0+0Z" fill="#ffffff" stroke-linecap="round" opacity="1" stroke-linejoin="round"/>
<g opacity="1">
<path d="M15.4993+29.3435C15.1575+29.3663+14.7929+29.3777+14.4055+29.3777C14.0181+29.3777+13.4428+29.3492+12.6794+29.2923L12.6794+38.179L8.15063+38.179L8.15063+15.3299C9.74568+15.1248+11.7053+15.0222+14.0295+15.0222C17.1969+15.0222+19.5581+15.6061+21.1133+16.774C22.6685+17.9418+23.446+19.7447+23.446+22.1829C23.446+24.0742+22.734+25.692+21.3098+27.0364C20.8427+27.4693+20.3072+27.8453+19.7034+28.1643L23.1897+35.513C23.8733+37.0283+24.3974+37.9283+24.762+38.2132L24.6765+38.2986C23.5714+38.1163+21.8339+38.122+19.4641+38.3157L15.4993+29.3435ZM14.3542+19.0554C13.7732+19.0554+13.2149+19.0839+12.6794+19.1409L12.6794+25.6692C13.2377+25.749+13.8928+25.7888+14.6448+25.7888C15.3967+25.7888+16.029+25.7233+16.5417+25.5923C17.0544+25.4613+17.4988+25.2591+17.8748+24.9856C18.6837+24.3818+19.0881+23.476+19.0881+22.2683C19.0881+21.0607+18.6666+20.2119+17.8235+19.722C17.0374+19.2776+15.8809+19.0554+14.3542+19.0554Z" opacity="1" fill="#282828"/>
<path d="M39.9719+34.0774C40.6783+34.0774+41.1682+34.0091+41.4416+33.8723L41.51+33.8894L41.3391+38.179L28.5388+38.179L28.5388+15.3299C28.8464+15.3526+29.1882+15.3697+29.5642+15.3811L30.7605+15.4153C31.558+15.4381+32.4239+15.4495+33.3582+15.4495C35.9672+15.4495+38.5478+15.4039+41.0999+15.3128C40.9745+16.3154+40.9119+17.6541+40.9119+19.3289C40.9119+19.5112+40.9233+19.6479+40.946+19.739L40.9119+19.7903C40.3194+19.6194+39.4763+19.534+38.3826+19.534L32.9993+19.534L32.9993+23.8919L37.0496+23.8919C38.3028+23.8919+39.0548+23.8577+39.3054+23.7893L39.3567+28.0105C38.8098+27.9536+38.1034+27.9251+37.2375+27.9251L32.9993+27.9251L32.9993+34.0774L39.9719+34.0774Z" opacity="1" fill="#282828"/>
<path d="M46.2268+38.179C46.2952+37.7916+46.3293+37.3701+46.3293+36.9143L46.3293+15.4495L49.7473+15.4495L58.8049+29.7024L58.8049+16.6116C58.8049+15.985+58.748+15.5976+58.634+15.4495L63.2483+15.4495C63.1913+15.9052+63.1628+16.4065+63.1628+16.9534L63.1628+38.179L59.6082+38.179L50.6873+24.49L50.6873+38.179L46.2268+38.179Z" opacity="1" fill="#282828"/>
<path d="M80.7312+34.0774C81.4376+34.0774+81.9275+34.0091+82.2009+33.8723L82.2693+33.8894L82.0984+38.179L69.2981+38.179L69.2981+15.3299C69.6057+15.3526+69.9475+15.3697+70.3235+15.3811L71.5198+15.4153C72.3173+15.4381+73.1832+15.4495+74.1174+15.4495C76.7265+15.4495+79.307+15.4039+81.8591+15.3128C81.7338+16.3154+81.6711+17.6541+81.6711+19.3289C81.6711+19.5112+81.6825+19.6479+81.7053+19.739L81.6711+19.7903C81.0787+19.6194+80.2356+19.534+79.1418+19.534L73.7585+19.534L73.7585+23.8919L77.8088+23.8919C79.0621+23.8919+79.814+23.8577+80.0647+23.7893L80.116+28.0105C79.5691+27.9536+78.8627+27.9251+77.9968+27.9251L73.7585+27.9251L73.7585+34.0774L80.7312+34.0774ZM74.2371+7.62234C75.946+7.62234+77.769+7.5255+79.7058+7.33181L79.6887+7.45144L75.2112+12.9715L71.3489+12.9715L74.2371+7.62234Z" opacity="1" fill="#282828"/>
<path d="M102.794+38.2815C102.008+38.2132+101.005+38.179+99.7864+38.179L98.4363+38.179L98.4363+15.3811L99.1199+15.4153C99.5984+15.4381+99.9573+15.4495+100.197+15.4495L100.692+15.4495C101.695+15.4495+102.395+15.4039+102.794+15.3128L102.794+24.9685L109.716+15.3811C110.445+15.4267+111.06+15.4495+111.561+15.4495L112.501+15.4495C113.675+15.4495+114.512+15.4039+115.013+15.3128L108.417+23.9261L114.911+36.8118C115.184+37.4384+115.441+37.8942+115.68+38.179L114.637+38.179C112.233+38.179+110.735+38.2246+110.143+38.3157C110.017+37.5524+109.847+36.8859+109.63+36.3162L105.272+28.0105L102.794+31.2576L102.794+38.2815Z" opacity="1" fill="#282828"/>
<path d="M130.258+34.0774C130.964+34.0774+131.454+34.0091+131.727+33.8723L131.796+33.8894L131.625+38.179L118.824+38.179L118.824+15.3299C119.132+15.3526+119.474+15.3697+119.85+15.3811L121.046+15.4153C121.844+15.4381+122.71+15.4495+123.644+15.4495C126.253+15.4495+128.833+15.4039+131.385+15.3128C131.26+16.3154+131.198+17.6541+131.198+19.3289C131.198+19.5112+131.209+19.6479+131.232+19.739L131.198+19.7903C130.605+19.6194+129.762+19.534+128.668+19.534L123.285+19.534L123.285+23.8919L127.335+23.8919C128.588+23.8919+129.34+23.8577+129.591+23.7893L129.642+28.0105C129.095+27.9536+128.389+27.9251+127.523+27.9251L123.285+27.9251L123.285+34.0774L130.258+34.0774Z" opacity="1" fill="#282828"/>
<path d="M140.973+38.2815C140.426+38.2132+139.372+38.179+137.811+38.179L136.444+38.179L136.444+15.3811C137.173+15.4267+137.976+15.4495+138.854+15.4495C139.731+15.4495+140.352+15.4039+140.717+15.3128L146.459+25.0711L151.979+15.3128C152.343+15.4039+153.038+15.4495+154.064+15.4495C155.089+15.4495+155.966+15.4267+156.696+15.3811L156.696+38.179L155.328+38.179C153.767+38.179+152.714+38.2132+152.167+38.2815L152.167+22.969L146.578+32.9666L140.973+23.7722L140.973+38.2815Z" opacity="1" fill="#282828"/>
<path d="M162.335+15.3299C163.919+15.1248+165.542+15.0222+167.206+15.0222C170.305+15.0222+172.66+15.7486+174.272+17.2012C175.885+18.6538+176.691+20.8271+176.691+23.721C176.691+26.3072+175.808+28.3523+174.042+29.8562C172.39+31.269+170.265+31.9754+167.667+31.9754C167.371+31.9754+167.046+31.9583+166.693+31.9241L166.693+38.179L162.335+38.179L162.335+15.3299ZM167.719+19.1409C167.377+19.1409+167.035+19.1523+166.693+19.1751L166.693+28.1643C167.058+28.2099+167.502+28.2327+168.026+28.2327C168.55+28.2327+169.097+28.1216+169.667+27.8994C170.236+27.6773+170.715+27.3668+171.102+26.968C171.911+26.1363+172.316+25.0426+172.316+23.6868C172.316+20.6562+170.783+19.1409+167.719+19.1409Z" opacity="1" fill="#282828"/>
<path d="M191.627+34.0774C192.334+34.0774+192.823+34.0091+193.097+33.8723L193.165+33.8894L192.994+38.179L180.194+38.179L180.194+15.3299C180.502+15.3526+180.844+15.3697+181.219+15.3811L182.416+15.4153C183.213+15.4381+184.079+15.4495+185.013+15.4495C187.622+15.4495+190.203+15.4039+192.755+15.3128C192.63+16.3154+192.567+17.6541+192.567+19.3289C192.567+19.5112+192.579+19.6479+192.601+19.739L192.567+19.7903C191.975+19.6194+191.132+19.534+190.038+19.534L184.655+19.534L184.655+23.8919L188.705+23.8919C189.958+23.8919+190.71+23.8577+190.961+23.7893L191.012+28.0105C190.465+27.9536+189.759+27.9251+188.893+27.9251L184.655+27.9251L184.655+34.0774L191.627+34.0774Z" opacity="1" fill="#282828"/>
</g>
<g opacity="1">
<path d="M32.707+52.7596C32.4883+52.7323+31.9255+52.7186+31.0186+52.7186L30.7998+52.7186L30.7998+45.1581L29.4463+45.1581C29.0452+45.1581+28.8083+45.1786+28.7354+45.2196C28.6624+45.2606+28.6055+45.2971+28.5645+45.329L28.5439+45.3221L28.5439+43.5721L28.5645+43.5516C28.7148+43.6018+29.1204+43.6268+29.7812+43.6268L34.0674+43.6268C34.4684+43.6268+34.7054+43.6063+34.7783+43.5653C34.8512+43.5243+34.9082+43.4878+34.9492+43.4559L34.9697+43.4628L34.9697+45.2128L34.9492+45.2333C34.7988+45.1831+34.3932+45.1581+33.7324+45.1581L32.707+45.1581L32.707+52.7596Z" opacity="1" fill="#282828"/>
<path d="M39.3789+49.1844C39.2422+49.1935+39.0964+49.1981+38.9414+49.1981C38.7865+49.1981+38.5563+49.1867+38.251+49.1639L38.251+52.7186L36.4395+52.7186L36.4395+43.579C37.0775+43.4969+37.8613+43.4559+38.791+43.4559C40.0579+43.4559+41.0024+43.6895+41.6245+44.1566C42.2466+44.6237+42.5576+45.3449+42.5576+46.3202C42.5576+47.0767+42.2728+47.7238+41.7031+48.2616C41.5163+48.4348+41.3021+48.5851+41.0605+48.7128L42.4551+51.6522C42.7285+52.2583+42.9382+52.6184+43.084+52.7323L43.0498+52.7665C42.6077+52.6935+41.9128+52.6958+40.9648+52.7733L39.3789+49.1844ZM38.9209+45.0692C38.6885+45.0692+38.4652+45.0806+38.251+45.1034L38.251+47.7147C38.4743+47.7466+38.7363+47.7626+39.0371+47.7626C39.3379+47.7626+39.5908+47.7364+39.7959+47.6839C40.001+47.6315+40.1787+47.5506+40.3291+47.4413C40.6527+47.1997+40.8145+46.8374+40.8145+46.3544C40.8145+45.8713+40.6458+45.5318+40.3086+45.3358C39.9941+45.1581+39.5316+45.0692+38.9209+45.0692Z" opacity="1" fill="#282828"/>
<path d="M45.2578+52.7733C44.8659+52.7368+44.4079+52.7186+43.8838+52.7186L43.3437+52.7186L46.3174+44.3856C46.4495+44.0119+46.5156+43.7943+46.5156+43.7328C46.5156+43.6712+46.5133+43.6337+46.5088+43.62L46.5156+43.6063C46.8118+43.62+47.1263+43.6268+47.459+43.6268C47.7324+43.6268+48.0605+43.6223+48.4434+43.6131L48.4502+43.6268C48.4411+43.645+48.4365+43.6701+48.4365+43.702C48.4365+43.7886+48.5049+44.0187+48.6416+44.3924L51.6768+52.7391C51.5856+52.7346+51.4785+52.7323+51.3555+52.7323C51.3555+52.7323+51.237+52.7277+51+52.7186C50.8861+52.7186+50.7835+52.7186+50.6924+52.7186L49.6328+52.7186L48.9902+50.7499L45.9004+50.7499L45.2578+52.7733ZM48.457+49.1092L47.4248+45.9305L46.4199+49.1092L48.457+49.1092Z" opacity="1" fill="#282828"/>
<path d="M56.667+52.746C56.5212+52.7277+56.2819+52.7186+55.9492+52.7186L55.1973+52.7186C55.0742+52.7186+54.9626+52.7232+54.8623+52.7323L54.8555+52.7186C54.8737+52.6867+54.8828+52.6503+54.8828+52.6092C54.8828+52.5682+54.8794+52.5249+54.8726+52.4794C54.8657+52.4338+54.8464+52.3518+54.8145+52.2333C54.7826+52.1148+54.7324+51.9439+54.6641+51.7206L54.377+50.8046L51.834+43.5995C52.1165+43.6177+52.4766+43.6268+52.9141+43.6268C53.3516+43.6268+53.6318+43.6086+53.7549+43.5721L55.8125+49.786L57.6172+43.5995C57.8906+43.6177+58.2279+43.6268+58.6289+43.6268C59.1758+43.6268+59.4948+43.6086+59.5859+43.5721L57.0908+50.784C57.0908+50.784+57.0111+51.0506+56.8516+51.5838C56.7194+52.0396+56.6533+52.3347+56.6533+52.4691C56.6533+52.6035+56.6624+52.689+56.6807+52.7254L56.667+52.746Z" opacity="1" fill="#282828"/>
<path d="M65.5059+51.078C65.7884+51.078+65.9844+51.0506+66.0937+50.996L66.1211+51.0028L66.0527+52.7186L60.9326+52.7186L60.9326+43.579C61.0557+43.5881+61.1924+43.5949+61.3428+43.5995L61.8213+43.6131C62.1403+43.6223+62.4867+43.6268+62.8604+43.6268C63.904+43.6268+64.9362+43.6086+65.957+43.5721C65.9069+43.9732+65.8818+44.5087+65.8818+45.1786C65.8818+45.2515+65.8864+45.3062+65.8955+45.3426L65.8818+45.3631C65.6449+45.2948+65.3076+45.2606+64.8701+45.2606L62.7168+45.2606L62.7168+47.0038L64.3369+47.0038C64.8382+47.0038+65.139+46.9901+65.2393+46.9628L65.2598+48.6512C65.041+48.6284+64.7585+48.6171+64.4121+48.6171L62.7168+48.6171L62.7168+51.078L65.5059+51.078Z" opacity="1" fill="#282828"/>
<path d="M69.2793+52.7186C68.6094+52.7186+68.165+52.7323+67.9463+52.7596L67.9463+43.5858C68.0557+43.6131+68.2824+43.6268+68.6265+43.6268C68.9705+43.6268+69.3704+43.6177+69.8262+43.5995L69.8262+51.078L71.2412+51.078C71.6514+51.078+71.9795+51.0643+72.2256+51.037C72.1937+52.1034+72.1777+52.6571+72.1777+52.6981L72.1777+52.7665C71.7311+52.7346+70.9814+52.7186+69.9287+52.7186L69.2793+52.7186Z" opacity="1" fill="#282828"/>
<path d="M78.3027+43.579C78.9362+43.4969+79.5856+43.4559+80.251+43.4559C81.4906+43.4559+82.4328+43.7464+83.0776+44.3275C83.7225+44.9086+84.0449+45.7779+84.0449+46.9354C84.0449+47.9699+83.6917+48.7879+82.9854+49.3895C82.3245+49.9546+81.4746+50.2372+80.4355+50.2372C80.3171+50.2372+80.1872+50.2303+80.0459+50.2167L80.0459+52.7186L78.3027+52.7186L78.3027+43.579ZM80.4561+45.1034C80.3193+45.1034+80.1826+45.1079+80.0459+45.1171L80.0459+48.7128C80.1917+48.731+80.3695+48.7401+80.5791+48.7401C80.7887+48.7401+81.0075+48.6957+81.2354+48.6068C81.4632+48.5179+81.6546+48.3937+81.8096+48.2342C82.1331+47.9016+82.2949+47.4641+82.2949+46.9217C82.2949+45.7095+81.682+45.1034+80.4561+45.1034Z" opacity="1" fill="#282828"/>
<path d="M87.292+52.7596C86.8545+52.7323+86.335+52.7186+85.7334+52.7186L85.5146+52.7186L85.5146+43.5926C85.7972+43.6154+85.9977+43.6268+86.1162+43.6268L86.3965+43.6268C86.7565+43.6268+87.055+43.6086+87.292+43.5721L87.292+47.2157L90.5049+47.2157L90.5049+43.5926C90.8831+43.6154+91.2511+43.6268+91.6089+43.6268C91.9666+43.6268+92.1911+43.6086+92.2822+43.5721L92.2822+52.7596C92.0635+52.7323+91.6305+52.7186+90.9834+52.7186L90.5049+52.7186L90.5049+48.8563L87.292+48.8563L87.292+52.7596Z" opacity="1" fill="#282828"/>
<path d="M95.5156+51.6385C95.1009+51.2421+94.7739+50.7658+94.5347+50.2098C94.2954+49.6538+94.1758+49.0443+94.1758+48.3812C94.1758+47.7181+94.2874+47.0904+94.5107+46.4979C94.734+45.9055+95.0531+45.3837+95.4678+44.9325C95.8825+44.4813+96.3838+44.1224+96.9717+43.8558C97.5596+43.5892+98.2181+43.4559+98.9473+43.4559C100.205+43.4559+101.265+43.8524+102.126+44.6454C103.047+45.493+103.507+46.6369+103.507+48.077C103.507+49.4715+103.033+50.6314+102.085+51.5565C101.502+52.1262+100.807+52.5181+100+52.7323C99.6035+52.8371+99.1398+52.8895+98.6089+52.8895C98.078+52.8895+97.5334+52.7801+96.9751+52.5614C96.4168+52.3426+95.9303+52.035+95.5156+51.6385ZM96.0762+48.2889C96.0762+48.7128+96.1468+49.1024+96.2881+49.4579C96.4294+49.8133+96.6253+50.1187+96.876+50.3739C97.4092+50.9116+98.0951+51.1805+98.9336+51.1805C99.7311+51.1805+100.371+50.923+100.854+50.4081C101.347+49.8749+101.593+49.148+101.593+48.2274C101.593+47.3615+101.358+46.6392+100.889+46.0604C100.383+45.4406+99.6901+45.1307+98.8105+45.1307C97.9583+45.1307+97.2816+45.4452+96.7803+46.0741C96.3109+46.662+96.0762+47.4003+96.0762+48.2889Z" opacity="1" fill="#282828"/>
<path d="M108.545+52.7596C108.326+52.7323+107.763+52.7186+106.856+52.7186L106.638+52.7186L106.638+45.1581L105.284+45.1581C104.883+45.1581+104.646+45.1786+104.573+45.2196C104.5+45.2606+104.443+45.2971+104.402+45.329L104.382+45.3221L104.382+43.5721L104.402+43.5516C104.553+43.6018+104.958+43.6268+105.619+43.6268L109.905+43.6268C110.306+43.6268+110.543+43.6063+110.616+43.5653C110.689+43.5243+110.746+43.4878+110.787+43.4559L110.808+43.4628L110.808+45.2128L110.787+45.2333C110.637+45.1831+110.231+45.1581+109.57+45.1581L108.545+45.1581L108.545+52.7596Z" opacity="1" fill="#282828"/>
<path d="M113.022+51.6385C112.608+51.2421+112.281+50.7658+112.042+50.2098C111.802+49.6538+111.683+49.0443+111.683+48.3812C111.683+47.7181+111.794+47.0904+112.018+46.4979C112.241+45.9055+112.56+45.3837+112.975+44.9325C113.389+44.4813+113.891+44.1224+114.479+43.8558C115.066+43.5892+115.725+43.4559+116.454+43.4559C117.712+43.4559+118.771+43.8524+119.633+44.6454C120.553+45.493+121.014+46.6369+121.014+48.077C121.014+49.4715+120.54+50.6314+119.592+51.5565C119.008+52.1262+118.313+52.5181+117.507+52.7323C117.11+52.8371+116.647+52.8895+116.116+52.8895C115.585+52.8895+115.04+52.7801+114.482+52.5614C113.924+52.3426+113.437+52.035+113.022+51.6385ZM113.583+48.2889C113.583+48.7128+113.654+49.1024+113.795+49.4579C113.936+49.8133+114.132+50.1187+114.383+50.3739C114.916+50.9116+115.602+51.1805+116.44+51.1805C117.238+51.1805+117.878+50.923+118.361+50.4081C118.854+49.8749+119.1+49.148+119.1+48.2274C119.1+47.3615+118.865+46.6392+118.396+46.0604C117.89+45.4406+117.197+45.1307+116.317+45.1307C115.465+45.1307+114.788+45.4452+114.287+46.0741C113.818+46.662+113.583+47.4003+113.583+48.2889Z" opacity="1" fill="#282828"/>
<path d="M130.263+47.2362C130.176+47.3911+130.133+47.7626+130.133+48.3504L130.133+50.4696C130.133+51.1122+129.8+51.6704+129.135+52.1444C128.447+52.6411+127.604+52.8895+126.605+52.8895C125.22+52.8895+124.115+52.4543+123.29+51.5838C122.493+50.7544+122.094+49.6971+122.094+48.412C122.094+47.0448+122.499+45.9055+123.311+44.994C124.217+43.9686+125.466+43.4559+127.057+43.4559C128.118+43.4559+128.959+43.661+129.579+44.0712L129.47+46.0878L129.415+46.1014C129.256+45.8234+128.941+45.5956+128.472+45.4178C128.025+45.2492+127.557+45.1649+127.067+45.1649C126.577+45.1649+126.149+45.2424+125.782+45.3973C125.415+45.5523+125.104+45.7733+124.849+46.0604C124.311+46.6483+124.042+47.4253+124.042+48.3915C124.042+49.2346+124.279+49.9113+124.753+50.4217C125.227+50.9276+125.838+51.1805+126.585+51.1805C127.41+51.1805+127.966+50.9663+128.253+50.5379C128.344+50.4012+128.39+50.2463+128.39+50.0731L128.39+48.9383L127.508+48.9383C127.034+48.9383+126.776+48.9794+126.735+49.0614L126.715+49.0546L126.653+47.2704C126.781+47.3068+127.298+47.3251+128.205+47.3251L129.012+47.3251C129.513+47.3251+129.923+47.2909+130.242+47.2225L130.263+47.2362Z" opacity="1" fill="#282828"/>
<path d="M135.034+49.1844C134.897+49.1935+134.752+49.1981+134.597+49.1981C134.442+49.1981+134.212+49.1867+133.906+49.1639L133.906+52.7186L132.095+52.7186L132.095+43.579C132.733+43.4969+133.517+43.4559+134.446+43.4559C135.713+43.4559+136.658+43.6895+137.28+44.1566C137.902+44.6237+138.213+45.3449+138.213+46.3202C138.213+47.0767+137.928+47.7238+137.358+48.2616C137.172+48.4348+136.957+48.5851+136.716+48.7128L138.11+51.6522C138.384+52.2583+138.593+52.6184+138.739+52.7323L138.705+52.7665C138.263+52.6935+137.568+52.6958+136.62+52.7733L135.034+49.1844ZM134.576+45.0692C134.344+45.0692+134.12+45.0806+133.906+45.1034L133.906+47.7147C134.13+47.7466+134.392+47.7626+134.692+47.7626C134.993+47.7626+135.246+47.7364+135.451+47.6839C135.656+47.6315+135.834+47.5506+135.984+47.4413C136.308+47.1997+136.47+46.8374+136.47+46.3544C136.47+45.8713+136.301+45.5318+135.964+45.3358C135.649+45.1581+135.187+45.0692+134.576+45.0692Z" opacity="1" fill="#282828"/>
<path d="M140.913+52.7733C140.521+52.7368+140.063+52.7186+139.539+52.7186L138.999+52.7186L141.973+44.3856C142.105+44.0119+142.171+43.7943+142.171+43.7328C142.171+43.6712+142.169+43.6337+142.164+43.62L142.171+43.6063C142.467+43.62+142.782+43.6268+143.114+43.6268C143.388+43.6268+143.716+43.6223+144.099+43.6131L144.105+43.6268C144.096+43.645+144.092+43.6701+144.092+43.702C144.092+43.7886+144.16+44.0187+144.297+44.3924L147.332+52.7391C147.241+52.7346+147.134+52.7323+147.011+52.7323C147.011+52.7323+146.892+52.7277+146.655+52.7186C146.541+52.7186+146.439+52.7186+146.348+52.7186L145.288+52.7186L144.646+50.7499L141.556+50.7499L140.913+52.7733ZM144.112+49.1092L143.08+45.9305L142.075+49.1092L144.112+49.1092Z" opacity="1" fill="#282828"/>
<path d="M148.303+43.579C148.936+43.4969+149.586+43.4559+150.251+43.4559C151.491+43.4559+152.433+43.7464+153.078+44.3275C153.722+44.9086+154.045+45.7779+154.045+46.9354C154.045+47.9699+153.692+48.7879+152.985+49.3895C152.325+49.9546+151.475+50.2372+150.436+50.2372C150.317+50.2372+150.187+50.2303+150.046+50.2167L150.046+52.7186L148.303+52.7186L148.303+43.579ZM150.456+45.1034C150.319+45.1034+150.183+45.1079+150.046+45.1171L150.046+48.7128C150.192+48.731+150.369+48.7401+150.579+48.7401C150.789+48.7401+151.007+48.6957+151.235+48.6068C151.463+48.5179+151.655+48.3937+151.81+48.2342C152.133+47.9016+152.295+47.4641+152.295+46.9217C152.295+45.7095+151.682+45.1034+150.456+45.1034Z" opacity="1" fill="#282828"/>
<path d="M157.292+52.7596C156.854+52.7323+156.335+52.7186+155.733+52.7186L155.515+52.7186L155.515+43.5926C155.797+43.6154+155.998+43.6268+156.116+43.6268L156.396+43.6268C156.757+43.6268+157.055+43.6086+157.292+43.5721L157.292+47.2157L160.505+47.2157L160.505+43.5926C160.883+43.6154+161.251+43.6268+161.609+43.6268C161.967+43.6268+162.191+43.6086+162.282+43.5721L162.282+52.7596C162.063+52.7323+161.631+52.7186+160.983+52.7186L160.505+52.7186L160.505+48.8563L157.292+48.8563L157.292+52.7596Z" opacity="1" fill="#282828"/>
<path d="M166.678+52.7186C166.737+52.5409+166.767+52.1262+166.767+51.4745L166.767+49.5741C165.978+47.8378+165.475+46.7543+165.256+46.3236C165.037+45.8929+164.853+45.5523+164.702+45.3016C164.228+44.4995+163.942+44.0393+163.844+43.9208C163.746+43.8023+163.647+43.7043+163.547+43.6268L165.905+43.6268C165.955+43.718+166.024+43.8524+166.11+44.0301L167.765+47.5233C167.842+47.3319+167.933+47.1177+168.038+46.8807C169.032+44.7434+169.535+43.6587+169.549+43.6268L171.805+43.6268C171.572+43.8137+171.287+44.2056+170.95+44.8026C170.845+44.9803+170.741+45.1831+170.636+45.411L169.091+48.6307C168.918+49.0181+168.77+49.3667+168.646+49.6766L168.646+51.6385C168.646+52.0943+168.674+52.4543+168.729+52.7186L166.678+52.7186Z" opacity="1" fill="#282828"/>
</g>
</g>
</svg>
